#!OML:ASF E:/inclinewalkrobotboard/Project1/Captureday1/Session1/subject1.ASF
:FULLY-SPECIFIED
:DEGREES
176
root 0 0 0 1.8117081291144899 -10.279558881025617 0.9366421988243163
lowerback 0.02399233956839031 -1.5824980020407182 -2.6855363907284038
upperback -0.5242407194979785 -2.0676989210761585 1.8788771027565974
thorax -0.4588307002576212 -1.029412695578957 3.3732609672755545
lowerneck -25.907384838606795 -1.9343437555325471 -7.549010663830941
upperneck 23.62457676541876 -0.2564130834059314 2.6238317460072063
head 12.211937473736432 -0.5975666536963294 2.3126999463841735
rclavicle -2.8095606660210216E-15 -1.8858775953993473E-15
rhumerus -30.474724350657997 -0.7112545782435564 -82.4225441315288
rradius 31.966115335804204
rwrist 18.09709115996173
rhand -18.46215897179408 9.34152589566552
rfingers 7.125019999999939
rthumb 7.818929805695315 -20.435537356811928
lclavicle -5.06008910220911E-15 2.370143143752953E-15
lhumerus -22.113943115701346 -2.2518760599387395 92.19866389601663
lradius 61.708910248359956
lwrist 2.271515702932083
lhand -28.309212017748454 20.7562267408264
lfingers 7.125020000000008
lthumb -1.720925794818923 50.75349205017588
rfemur 11.812298755502809 8.500343916099729 37.62322630405875
rtibia 24.731081948025285
rfoot -22.39425850009866 -6.279717169757474
rtoes -1.304325740044936
lfemur -32.293728260942856 -2.136950273502905 -9.703840393170886
ltibia 30.798830145407315
lfoot -4.49028371794228 2.8847330347246727
ltoes -2.598765424199758
177
root 0 0 0 1.8106321689297031 -10.309899951179563 0.9376094790796876
lowerback -0.030224522364444617 -1.5814509938339565 -2.698407108754191
upperback -0.5473048998209035 -2.0667009301680257 1.8474719460506563
thorax -0.4542293287457506 -1.0272665270152546 3.3465345844533294
lowerneck -25.816473288420834 -1.9320028409173855 -7.579907760108872
upperneck 23.935261042071758 -0.2548709498089049 2.611740907059666
head 12.310200118188654 -0.6085884246234654 2.3169854026214143
rclavicle -2.174652722988537E-15 -2.3356423424006972E-15
rhumerus -30.416282319511218 -0.30532592959057947 -82.367045874808
rradius 31.969743475034264
rwrist 18.010696629076044
rhand -18.551445111522654 9.378112474374104
rfingers 7.125019999999938
rthumb 7.731847418753471 -20.39803568521258
lclavicle -5.381618259572925E-15 2.321569877701914E-15
lhumerus -21.856079842073157 -1.6126749706167427 92.09874399985816
lradius 61.5084454480862
lwrist 2.1689189620232954
lhand -28.331579511274818 20.73416903927386
lfingers 7.12502000000001
lthumb -1.7426543412628437 50.72712150514404
rfemur 15.535531050285734 7.885693980618999 36.119098556718505
rtibia 30.032198858297267
rfoot -18.535575637528183 -4.359841820170757
rtoes -5.421472569557884
lfemur -31.659679105071678 -4.425768257446128 -8.842269279321066
ltibia 23.388012993811603
lfoot -3.95636504180308 4.067914370046884
ltoes -2.4333392309886133
178
root 0 0 0 1.8071819797474649 -10.344653688543449 0.9367551799914897
lowerback -0.08671244191232663 -1.582872925464991 -2.712289060514509
upperback -0.5715066790230263 -2.06811077943071 1.8142541876106562
thorax -0.4499130002483921 -1.0264531335480203 3.318808299294128
lowerneck -25.680657687969283 -1.9179254918942572 -7.616964216959425
upperneck 24.359144996057708 -0.23475620450558365 2.5810537364097823
head 12.441453508453499 -0.6167846874498296 2.319586643085429
rclavicle -3.0637234624338637E-15 -2.359762647541234E-15
rhumerus -30.48002002366419 -0.2199409017243985 -82.21371761838545
rradius 31.86601326446847
rwrist 17.991390068605888
rhand -18.583380967907825 9.42968174866461
rfingers 7.125019999999935
rthumb 7.700498672618167 -20.344666769805016
lclavicle -7.007069841462686E-15 2.4315064674504976E-15
lhumerus -21.52144484834676 -1.0052594195236133 91.97776380393985
lradius 61.31578828018586
lwrist 2.0287354050628243
lhand -28.406678916277208 20.705590866618532
lfingers 7.12502000000001
lthumb -1.8116292876348954 50.69070667069451
rfemur 15.360156922846201 6.508575175484986 33.685795565618534
rtibia 37.35331990898474
rfoot -12.614809190093355 -2.2053889695214393
rtoes -6.508755480421972
lfemur -30.6036898704945 -4.810962193806677 -9.161976307554639
ltibia 22.70671597361602
lfoot -3.6557250176463087 3.623140995093822
ltoes -2.3962492393255346
179
root 0 0 0 1.8024190284298958 -10.441011874376732 0.9312779994716367
lowerback -0.1848217632986513 -1.6030559732777756 -2.724198746709577
upperback -0.5918991108492822 -2.093197362504069 1.7581078367364733
thorax -0.4158334667778084 -1.038007690568309 3.267999235757388
lowerneck -25.472308617315818 -1.886737760446612 -7.685300590876936
upperneck 25.210032367741146 -0.17431827283895884 2.483122387359123
head 12.711662030667442 -0.6274041031975169 2.313127989267435
rclavicle -5.0780025923649565E-15 -1.4193903176134152E-15
rhumerus -30.720211144600782 -0.5192067468458452 -81.95087221537814
rradius 31.647253793110785
rwrist 18.11024475860986
rhand -18.534463114463065 9.44868764293801
rfingers 7.125019999999934
rthumb 7.7483643126701764 -20.328082218662423
lclavicle -8.028821892139148E-15 3.0161788469650173E-15
lhumerus -20.677378005772123 -0.18098149128476937 91.6550693639984
lradius 61.11229686276214
lwrist 1.7683983597781223
lhand -28.60306552961093 20.70612716279927
lfingers 7.125020000000008
lthumb -1.9948859835481327 50.67418338100067
rfemur 5.938740478932809 3.647483435317504 26.644072543592237
rtibia 55.636734821595574
rfoot 1.562135198982654 1.0883947066305604
rtoes -0.16009263218201308
lfemur -26.020134321960875 -4.220938564493117 -13.27637209007139
ltibia 28.741174201844164
lfoot -1.910095607111459 -0.9602924176082501
ltoes 1.9632392328975268
180
root 0 0 0 1.8171521393077255 -10.551911799196217 0.9195614692319916
lowerback -0.2610601439213416 -1.641687943901624 -2.7166267189714906
upperback -0.5578063390118689 -2.143328427128855 1.7068454956003891
thorax -0.3320377185499218 -1.0651719836298166 3.2110485250083074
lowerneck -25.306312896831535 -1.8588275885953085 -7.757031085798406
upperneck 26.13367275124345 -0.11299899439420191 2.3633578510694715
head 13.006295982388526 -0.6380164149528929 2.300534264614594
rclavicle -7.167999653167652E-15 5.003383994640434E-17
rhumerus -31.047268323813768 -1.2782805731385762 -81.71758632904157
rradius 31.40649199767633
rwrist 18.351367640276138
rhand -18.370338001160764 9.408356788258025
rfingers 7.1250199999999335
rthumb 7.907986437297924 -20.371383798318615
lclavicle -8.668327575900868E-15 3.336564540501687E-15
lhumerus -20.380142387275768 -0.06081326235107554 91.53072452346929
lradius 61.07162220541019
lwrist 1.7453913919624453
lhand -28.639751591399722 20.704889758667036
lfingers 7.125020000000006
lthumb -2.027962271479411 50.66973899170429
rfemur -5.12065557256811 2.298910800794764 24.054943538340154
rtibia 64.03210835017683
rfoot 9.647786504525937 -0.6948426955607871
rtoes 8.762066213909371
lfemur -21.040095690783694 -3.315136584537316 -17.584836285194413
ltibia 35.11851943117767
lfoot -1.8178012060275872 -4.650824488206814
ltoes 5.967313466746944
181
root 0 0 0 1.8346057432397302 -10.606870842577598 0.9069376907302535
lowerback -0.2629985338987566 -1.6726850776963378 -2.695328545066902
upperback -0.49775178992156965 -2.1844026128132867 1.6860960605615984
thorax -0.2618257348931392 -1.088680093435786 3.1779675936273084
lowerneck -25.246193048327108 -1.8391053287553099 -7.782677646015664
upperneck 26.611246925345522 -0.07243049290611947 2.276508995409352
head 13.156246354180642 -0.6383140314967819 2.284447494172417
rclavicle -7.301759713305086E-15 1.6458404403253651E-15
rhumerus -31.50542070140623 -2.5578577233585005 -81.40302255665924
rradius 31.053822190017964
rwrist 18.68329891843185
rhand -18.089879570682594 9.373572961430522
rfingers 7.125019999999928
rthumb 8.178686206529145 -20.40128542567733
lclavicle -8.377443187476193E-15 4.1097602902074135E-15
lhumerus -21.116101093903954 -1.0464155350780349 91.68186165846241
lradius 61.37150321249655
lwrist 2.261538898144445
lhand -28.267392476347233 20.970630006314448
lfingers 7.125020000000007
lthumb -1.669579326616132 50.96402544505467
rfemur -9.612636734237608 1.2994228018408451 23.73943272186419
rtibia 68.58607607561399
rfoot 6.906128744857606 -3.2666077071977084
rtoes 11.26431282976608
lfemur -16.924483041500125 -2.8597351500945245 -21.10789562255245
ltibia 33.077436221857134
lfoot -4.916013455009796 -3.3567816679851585
ltoes 8.534199806771191
182
root 0 0 0 1.8611702366223983 -10.62736864959707 0.8886659598513994
lowerback -0.24069701823152112 -1.6940774320667789 -2.67826637844968
upperback -0.4324916482123907 -2.213848094386682 1.6786436497874375
thorax -0.19896032771958105 -1.106494539383063 3.1603547056226082
lowerneck -25.122311518078238 -1.8056526745195276 -7.8070623361359015
upperneck 27.007451789146156 -0.025245941573042496 2.215770041934713
head 13.267372578968779 -0.6297984384591654 2.278027835105013
rclavicle -5.070206245584477E-15 2.0482254297769206E-15
rhumerus -31.843995696558338 -3.641854126097514 -81.22332052134571
rradius 30.822611165076005
rwrist 18.97501771407032
rhand -17.842071237403154 9.310510718259152
rfingers 7.1250199999999255
rthumb 8.41726116131656 -20.457175109283035
lclavicle -6.98449679558036E-15 4.221660158062601E-15
lhumerus -21.68985933503985 -2.0573464535865704 91.76906921750009
lradius 61.79025495142264
lwrist 2.6533106222792213
lhand -28.017704670025196 21.27676586879174
lfingers 7.125020000000007
lthumb -1.428767102754132 51.29250753146048
rfemur -17.555546604466954 -0.339977219585462 21.714932137182167
rtibia 72.34498791522668
rfoot 0.51414581835283 -5.669385002906477
rtoes 8.107653642030538
lfemur -12.498016352389683 -2.970118241032913 -24.485684120759174
ltibia 27.890988088875737
lfoot -10.872724312472123 0.06951742051470067
ltoes 10.247973984903297
